<?xml version="1.0" encoding="utf-8"?>
<svg version="1.1" id="Layer_1" x="0px" y="0px" viewBox="0 0 504.123 504.123" style="enable-background:new 0 0 504.123 504.123;" xmlns="http://www.w3.org/2000/svg">
  <linearGradient id="SVGID_1_" gradientUnits="userSpaceOnUse" x1="-53.5829" y1="585.3521" x2="12.3131" y2="568.2821" gradientTransform="matrix(7.8769, 0, 0, -7.8769, 364.053711, 4969.70166)">
    <stop offset="0.012" style="stop-color:#E0B386"/>
    <stop offset="0.519" style="stop-color:#DA498C"/>
    <stop offset="1" style="stop-color:#961484"/>
  </linearGradient>
  <g transform="matrix(1, 0, 0, 1, -0.804024, -39.356934)">
    <path style="fill:url(#SVGID_1_);" d="M 0 392.093 L 266.429 392.093 C 266.429 392.093 255.89 459.575 159.736 458.086 C 45.678 456.337 0 392.093 0 392.093 Z"/>
    <path style="fill:url(#SVGID_2_);" d="M 0 392.125 L 266.429 392.149 C 266.429 392.149 255.89 324.659 159.736 326.156 C 45.71 327.896 0 392.125 0 392.125 Z"/>
    <g>
      <path style="fill:url(#SVGID_3_);" d="M 37.675 205.623 L 252.967 420.939 C 252.967 420.939 189.936 466.948 113.443 388.069 C 22.693 294.443 37.675 205.623 37.675 205.623 Z"/>
      <path style="fill:url(#SVGID_4_);" d="M 37.644 205.646 L 252.936 420.962 C 252.936 420.962 298.969 357.931 220.073 281.438 C 126.488 190.665 37.644 205.646 37.644 205.646 Z"/>
      <path style="fill:url(#SVGID_5_);" d="M 504.123 392.093 L 237.694 392.093 C 237.694 392.093 248.233 459.575 344.387 458.086 C 458.445 456.337 504.123 392.093 504.123 392.093 Z"/>
      <path style="fill:url(#SVGID_6_);" d="M 504.123 392.125 L 237.694 392.149 C 237.694 392.149 248.233 324.659 344.387 326.156 C 458.413 327.896 504.123 392.125 504.123 392.125 Z"/>
      <path style="fill:url(#SVGID_7_);" d="M 466.448 205.623 L 251.124 420.931 C 251.124 420.931 314.155 466.94 390.64 388.061 C 481.43 294.443 466.448 205.623 466.448 205.623 Z"/>
      <path style="fill:url(#SVGID_8_);" d="M 466.448 205.646 L 251.156 420.962 C 251.156 420.962 205.123 357.931 284.019 281.438 C 377.643 190.665 466.448 205.646 466.448 205.646 Z"/>
      <path style="fill:url(#SVGID_9_);" d="M 252.077 46.013 L 252.077 421.191 C 252.077 421.191 157.073 406.367 159.153 271.017 C 161.634 110.344 252.077 46.013 252.077 46.013 Z"/>
      <path style="fill:url(#SVGID_10_);" d="M 252.03 46.013 L 252.03 421.191 C 252.03 421.191 347.034 406.367 344.954 271.017 C 342.481 110.344 252.03 46.013 252.03 46.013 Z"/>
    </g>
    <g/>
    <g/>
    <g/>
    <g/>
    <g/>
    <g/>
    <g/>
    <g/>
    <g/>
    <g/>
    <g/>
    <g/>
    <g/>
    <g/>
    <g/>
  </g>
  <linearGradient id="SVGID_2_" gradientUnits="userSpaceOnUse" x1="-44.8156" y1="599.5587" x2="-21.8076" y2="573.5497" gradientTransform="matrix(7.8769, 0, 0, -7.8769, 364.053711, 4969.70166)">
    <stop offset="0.012" style="stop-color:#E0B386"/>
    <stop offset="0.519" style="stop-color:#DA498C"/>
    <stop offset="1" style="stop-color:#961484"/>
  </linearGradient>
  <linearGradient id="SVGID_3_" gradientUnits="userSpaceOnUse" x1="-43.9849" y1="614.1712" x2="-4.5269" y2="547.1192" gradientTransform="matrix(7.8769, 0, 0, -7.8769, 364.053711, 4969.70166)">
    <stop offset="0.012" style="stop-color:#E0B386"/>
    <stop offset="0.519" style="stop-color:#DA498C"/>
    <stop offset="1" style="stop-color:#961484"/>
  </linearGradient>
  <linearGradient id="SVGID_4_" gradientUnits="userSpaceOnUse" x1="-25.4178" y1="618.5657" x2="-27.8438" y2="578.9587" gradientTransform="matrix(7.8769, 0, 0, -7.8769, 364.053711, 4969.70166)">
    <stop offset="0.012" style="stop-color:#E0B386"/>
    <stop offset="0.519" style="stop-color:#DA498C"/>
    <stop offset="1" style="stop-color:#961484"/>
  </linearGradient>
  <linearGradient id="SVGID_5_" gradientUnits="userSpaceOnUse" x1="25.1503" y1="585.3522" x2="-40.7517" y2="568.2822" gradientTransform="matrix(7.8769, 0, 0, -7.8769, 364.053711, 4969.70166)">
    <stop offset="0.012" style="stop-color:#E0B386"/>
    <stop offset="0.519" style="stop-color:#DA498C"/>
    <stop offset="1" style="stop-color:#961484"/>
  </linearGradient>
  <linearGradient id="SVGID_6_" gradientUnits="userSpaceOnUse" x1="16.382" y1="599.5599" x2="-6.628" y2="573.5499" gradientTransform="matrix(7.8769, 0, 0, -7.8769, 364.053711, 4969.70166)">
    <stop offset="0.012" style="stop-color:#E0B386"/>
    <stop offset="0.519" style="stop-color:#DA498C"/>
    <stop offset="1" style="stop-color:#961484"/>
  </linearGradient>
  <linearGradient id="SVGID_7_" gradientUnits="userSpaceOnUse" x1="15.5489" y1="614.1727" x2="-23.9141" y2="547.1207" gradientTransform="matrix(7.8769, 0, 0, -7.8769, 364.053711, 4969.70166)">
    <stop offset="0.012" style="stop-color:#E0B386"/>
    <stop offset="0.519" style="stop-color:#DA498C"/>
    <stop offset="1" style="stop-color:#961484"/>
  </linearGradient>
  <linearGradient id="SVGID_8_" gradientUnits="userSpaceOnUse" x1="-3.0207" y1="618.5648" x2="-0.5957" y2="578.9488" gradientTransform="matrix(7.8769, 0, 0, -7.8769, 364.053711, 4969.70166)">
    <stop offset="0.012" style="stop-color:#E0B386"/>
    <stop offset="0.519" style="stop-color:#DA498C"/>
    <stop offset="1" style="stop-color:#961484"/>
  </linearGradient>
  <linearGradient id="SVGID_9_" gradientUnits="userSpaceOnUse" x1="-8.2836" y1="635.4484" x2="-32.3246" y2="542.6584" gradientTransform="matrix(7.8769, 0, 0, -7.8769, 364.053711, 4969.70166)">
    <stop offset="0.012" style="stop-color:#E0B386"/>
    <stop offset="0.519" style="stop-color:#DA498C"/>
    <stop offset="1" style="stop-color:#961484"/>
  </linearGradient>
  <linearGradient id="SVGID_10_" gradientUnits="userSpaceOnUse" x1="11.7226" y1="623.1033" x2="-24.9034" y2="590.7062" gradientTransform="matrix(7.8769, 0, 0, -7.8769, 364.053711, 4969.70166)">
    <stop offset="0.012" style="stop-color:#E0B386"/>
    <stop offset="0.519" style="stop-color:#DA498C"/>
    <stop offset="1" style="stop-color:#961484"/>
  </linearGradient>
  <text style="fill: rgb(51, 51, 51); font-family: Arial, sans-serif; font-size: 22.5px; font-weight: 700; white-space: pre;" transform="matrix(1.977166, 0, 0, 1.83871, -228.540451, -387.254333)" x="202.614" y="465.53">Loteria</text>
</svg>